PathFileType	4	(X/Y/Z)	15_2_98_p1_0-713_filt_butterworth.trc
DataRate	CameraRate	NumFrames	NumMarkers	Units	OrigDataRate	OrigDataStartFrame	OrigNumFrames
54.0	54.0	5	27	m	54.0	178	713
Frame#	Time	RHip			RKnee			RAnkle			RBigToe			RSmallToe			RHeel			LHip			LKnee			LAnkle			LBigToe			LSmallToe			LHeel			Neck			Head			Nose			RShoulder			RElbow			RWrist			RThumb			RIndex			RPinky			LShoulder			LElbow			LWrist			LThumb			LIndex			LPinky			
		X1	Y1	Z1	X2	Y2	Z2	X3	Y3	Z3	X4	Y4	Z4	X5	Y5	Z5	X6	Y6	Z6	X7	Y7	Z7	X8	Y8	Z8	X9	Y9	Z9	X10	Y10	Z10	X11	Y11	Z11	X12	Y12	Z12	X13	Y13	Z13	X14	Y14	Z14	X15	Y15	Z15	X16	Y16	Z16	X17	Y17	Z17	X18	Y18	Z18	X19	Y19	Z19	X20	Y20	Z20	X21	Y21	Z21	X22	Y22	Z22	X23	Y23	Z23	X24	Y24	Z24	X25	Y25	Z25	X26	Y26	Z26	X27	Y27	Z27	
178	3.2962962962962963	0.20932735868286337	1.0271037130774274	0.10283445294819105	0.21252944985847327	0.6155739540673224	0.09757062973831591	0.24103073516735343	0.14455829227583727	0.17671218992683524	0.23726051827248978	0.1783514597859686	-0.03712557385950107	0.2962301371532974	0.1729408144486941	0.0005559043762242213	0.24478630033991075	0.0594532140241968	0.25500683352783504	0.021443960808556553	1.0262213050337692	0.08029432725291114	0.05048986019468687	0.578345031938117	0.16248555429962425	0.06652353045155901	0.12776175963133854	0.18822945095063764	0.07544557458189942	0.15970436087792786	-0.01156458342186346	0.033931653609399356	0.14456014854179297	0.02765546041246052	0.07541786073629708	0.06938966309582412	0.22542404172241445	0.08081428723869472	1.5855797168815728	0.09023651179283465	0.06817938202255919	1.8305327101816211	0.0288438161170384	0.10314648975534133	1.6947497529486935	-0.016508374620689548	0.23966352188569057	1.5194800413574387	0.12037801249347752	0.2683576603632666	1.2761049296411464	0.11202162803526947	0.3027889246017098	1.32682149587009	-0.0642133076769017	0.2992550271523674	1.3880230819522137	-0.16375312864031139	0.32492044648492796	1.3744092121510039	-0.1708640679508175	0.33386996395056834	1.3403655903505596	-0.21405760876189903	-0.05628904778538181	1.4999810870348553	0.09211767950963462	0.004033016087244678	1.2793380246038704	-0.035319032169240594	0.18973940624320149	1.3598266588239625	-0.1382129313867238	0.2772375914592283	1.4218443991512435	-0.1521194271807796	0.30554768270503785	1.3896442959654476	-0.1424896851179852	0.2932577483190205	1.3420622538896567	-0.18082678975670372	
179	3.314814814814815	0.20944564453099737	1.0265601137082858	0.1034865209226985	0.21260159863608902	0.6153104693734417	0.09766863982344262	0.24103599886103505	0.14478980432931357	0.1765156085930602	0.23774691050474242	0.17795374465243402	-0.036438015435696865	0.2972205005964566	0.17291937426507475	0.0008608235201234687	0.24429191558268934	0.060313314236494345	0.2538189681073901	0.02190882934422908	1.0269327958979568	0.07914187162447481	0.05058742312908791	0.5779068417962033	0.16257144460247897	0.0663748153128405	0.12776560954638694	0.18747542017535213	0.07546125766891032	0.15949593766500594	-0.011545642965244712	0.033961613392757106	0.14460383128142054	0.027609429002814347	0.07562596235208487	0.0692032154475396	0.22491025175117593	0.0807025059854907	1.5858330883678944	0.09040742871853735	0.06822035074874008	1.8306768759755785	0.028865872338168508	0.10328960697568962	1.6962498163440498	-0.019660127270288263	0.23962174639668848	1.521106715059783	0.12045752609496402	0.26747359919881014	1.281408816052055	0.11081011773074864	0.3068300813182624	1.3299844964246645	-0.06322110686348134	0.3035605333304012	1.3933098544329334	-0.155359855412294	0.3333236084432033	1.3742300079455017	-0.1641189463802447	0.3427920336118918	1.3402707234072362	-0.19816330114554487	-0.055568350096457914	1.500458206006591	0.09238871814526772	0.007536392060575421	1.2802078787876634	-0.03763485199912078	0.19462476712839816	1.3627860996490835	-0.1361929566290612	0.2803729201077324	1.429087896023399	-0.15018413013670434	0.3089680719177672	1.3925955379423405	-0.13775869409577834	0.29700519854477825	1.3450469933753177	-0.17683134635005932	
180	3.333333333333333	0.2095679696590753	1.0260245322813297	0.10428303674666792	0.21268050076584533	0.6150117185431733	0.09777485798825777	0.2409784009605603	0.14480565986827115	0.17665012604186817	0.2382184461571119	0.17812541756348635	-0.03668945773704924	0.29815011886000303	0.17288708465433603	0.0011262423045524175	0.2437931239288731	0.061233964407336944	0.25267680587674374	0.02223904622330777	1.027735821893067	0.07756196263996673	0.05068497361155542	0.5774497469640714	0.16266443105991973	0.06620348951466393	0.12778438434224051	0.18662175331564945	0.07538537091229017	0.15925614626540896	-0.0114990728540731	0.033990221583718255	0.14462880503192674	0.027580335533183852	0.07592284881986958	0.06879767703048963	0.22462861688203853	0.08056879426504218	1.5859505692348372	0.09110962335367645	0.06781910644743466	1.8308388677838796	0.028756937118327774	0.10303494138235342	1.6978930968961463	-0.02331919051928416	0.23948238487823575	1.5223418486169389	0.12057182718783649	0.2669667185358834	1.2859852286517335	0.11074286085355647	0.31014456716611455	1.3324621345896932	-0.061305149515282875	0.30858179369797145	1.3980140755524537	-0.14634645209307573	0.3422052079489588	1.3743443517433738	-0.15976293444307654	0.3518727823960993	1.3397696757751492	-0.18494671158614243	-0.05495148205343242	1.5009595409466137	0.09259559889713215	0.011096018079183251	1.2816708103160612	-0.041218051087009266	0.19906446751571497	1.365225905358151	-0.134507479408718	0.28497480449505286	1.4349692079535552	-0.14598622198799896	0.3131708136190872	1.3949975936580337	-0.13280531821884115	0.3000540814020478	1.3467019982858999	-0.17324443225443203	
181	3.351851851851852	0.20965905974007681	1.0254520061166938	0.10544335534036467	0.21277448915705968	0.6146132522155555	0.09787646242835547	0.240866381205644	0.14461986108743555	0.17708651213746554	0.2388209251068305	0.178343682343881	-0.03704042121046326	0.29888983052059537	0.17284764594354982	0.0013322409183288211	0.2433132923054736	0.06215715513622477	0.2516147412951768	0.02244791425415346	1.0284172593500858	0.07587706299344632	0.0507799918811966	0.576990279671763	0.16275980237058318	0.06599574615050374	0.12789097245959508	0.1856792955573437	0.07530541216145838	0.1589758565071193	-0.01137867947994246	0.03400985748620215	0.14461708915021512	0.027557599938117135	0.07622725521762723	0.06838889347056741	0.22447785663439002	0.08086166474084838	1.5860254173291528	0.09176171403411776	0.06715801141852479	1.831144482090229	0.028527862752790956	0.10272265271003217	1.6994421705707639	-0.02686144508136945	0.23937479842926074	1.5229701320208953	0.12072552668883418	0.26748227481181297	1.2893392549274272	0.11200289467141075	0.3126943635632546	1.3337880763682994	-0.05885092563734978	0.314762336142023	1.4007737163497853	-0.1371608888032506	0.3510821293868419	1.374602666435457	-0.15802845679482871	0.3592824909788763	1.3388503588863605	-0.17609483495249	-0.05455827666503239	1.5014961393817492	0.09267593477310426	0.014415387995343018	1.283641390755971	-0.04582899761848194	0.20299996564643003	1.3669480077903997	-0.13337341716752577	0.29078375771293213	1.4385860022203025	-0.139571524410982	0.3180505126952409	1.3960406837967678	-0.1272235819522745	0.3024379079863573	1.346912602431459	-0.17016465781066364	
182	3.3703703703703702	0.20979641473727412	1.0248251003372362	0.10695322156199635	0.21289116766956526	0.6140712451814954	0.0979672902575018	0.240707749179185	0.14427525608490244	0.17776370369164024	0.23961605984964102	0.1780264764754684	-0.03655676315226122	0.2993223637446566	0.17280453264826517	0.001465252943258312	0.24288041345863012	0.0630078164774745	0.25067196748866233	0.022542191126398298	1.0288105998112245	0.07444768298934856	0.0508709318482622	0.5765463357431359	0.1628498930897167	0.06574713579495697	0.12811641397505277	0.18466742564808486	0.07541271905648105	0.15869659721737528	-0.011169683601328789	0.03401301738188023	0.14455358580384292	0.02754072779036701	0.07639718807274906	0.06813622138379948	0.22446949196036325	0.0816449292899821	1.586064328073019	0.09170916460996703	0.06641010244606589	1.8316465203809187	0.028242666522874105	0.10230932773760085	1.7006685484946584	-0.02979974267615254	0.23942512077387917	1.5228895898252452	0.12087962693542037	0.2690918537539204	1.290764684754958	0.11447854669544197	0.31443357778736397	1.3338257205083548	-0.05653105440180495	0.3213779053011785	1.4008604690023247	-0.12924483766315503	0.3587548730422799	1.3748805850327466	-0.15849615633815062	0.36365275798141883	1.337561942856512	-0.1719198702064934	-0.05442738196231267	1.5020243413018028	0.09262189373025681	0.017478939186350705	1.2858725844526526	-0.051219209916086916	0.20680072515403786	1.3676538355216175	-0.13247428562634028	0.2968786025789083	1.439157055451392	-0.1323368344552479	0.32302987639351644	1.3951704156665377	-0.12142394377492224	0.3045172714636482	1.3461825696189273	-0.1670866143988105	
